<mxfile host="app.diagrams.net" modified="2022-06-20T01:14:55.596Z" agent="5.0 (Windows NT 10.0; Win64; x64) AppleWebKit/537.36 (KHTML, like Gecko) Chrome/102.0.5005.124 Safari/537.36 Edg/102.0.1245.44" etag="rX8v9FF7eFx6Zbaqv3BY" version="20.0.1" type="github">
  <diagram id="-vz4P1ZITSGPAcEF1N8J" name="Page-1">
    <mxGraphModel dx="1422" dy="1963" grid="1" gridSize="10" guides="1" tooltips="1" connect="1" arrows="1" fold="1" page="1" pageScale="1" pageWidth="827" pageHeight="1169" math="0" shadow="0">
      <root>
        <mxCell id="0" />
        <mxCell id="1" parent="0" />
        <mxCell id="q0Rex6J8z_JQCzWFVHfo-3" value="" style="edgeStyle=orthogonalEdgeStyle;rounded=0;orthogonalLoop=1;jettySize=auto;html=1;" parent="1" source="q0Rex6J8z_JQCzWFVHfo-1" target="q0Rex6J8z_JQCzWFVHfo-2" edge="1">
          <mxGeometry relative="1" as="geometry" />
        </mxCell>
        <mxCell id="q0Rex6J8z_JQCzWFVHfo-5" value="" style="edgeStyle=orthogonalEdgeStyle;rounded=0;orthogonalLoop=1;jettySize=auto;html=1;" parent="1" source="q0Rex6J8z_JQCzWFVHfo-1" target="q0Rex6J8z_JQCzWFVHfo-4" edge="1">
          <mxGeometry relative="1" as="geometry" />
        </mxCell>
        <mxCell id="q0Rex6J8z_JQCzWFVHfo-7" value="" style="edgeStyle=orthogonalEdgeStyle;rounded=0;orthogonalLoop=1;jettySize=auto;html=1;" parent="1" source="q0Rex6J8z_JQCzWFVHfo-1" target="q0Rex6J8z_JQCzWFVHfo-6" edge="1">
          <mxGeometry relative="1" as="geometry" />
        </mxCell>
        <mxCell id="QvXDd1vZIjCCklrZ6jTp-2" value="" style="edgeStyle=orthogonalEdgeStyle;rounded=0;orthogonalLoop=1;jettySize=auto;html=1;" edge="1" parent="1" source="q0Rex6J8z_JQCzWFVHfo-1" target="QvXDd1vZIjCCklrZ6jTp-1">
          <mxGeometry relative="1" as="geometry" />
        </mxCell>
        <mxCell id="q0Rex6J8z_JQCzWFVHfo-1" value="流程管理器" style="rounded=0;whiteSpace=wrap;html=1;" parent="1" vertex="1">
          <mxGeometry x="400" y="100" width="120" height="60" as="geometry" />
        </mxCell>
        <mxCell id="q0Rex6J8z_JQCzWFVHfo-2" value="切换流程" style="whiteSpace=wrap;html=1;rounded=0;" parent="1" vertex="1">
          <mxGeometry x="400" y="240" width="120" height="60" as="geometry" />
        </mxCell>
        <mxCell id="q0Rex6J8z_JQCzWFVHfo-4" value="存在流程" style="rounded=0;whiteSpace=wrap;html=1;" parent="1" vertex="1">
          <mxGeometry x="270" y="240" width="120" height="60" as="geometry" />
        </mxCell>
        <mxCell id="q0Rex6J8z_JQCzWFVHfo-6" value="获取流程" style="whiteSpace=wrap;html=1;rounded=0;" parent="1" vertex="1">
          <mxGeometry x="560" y="240" width="120" height="60" as="geometry" />
        </mxCell>
        <mxCell id="QvXDd1vZIjCCklrZ6jTp-1" value="启动流程" style="whiteSpace=wrap;html=1;rounded=0;" vertex="1" parent="1">
          <mxGeometry x="400" y="-70" width="120" height="60" as="geometry" />
        </mxCell>
      </root>
    </mxGraphModel>
  </diagram>
</mxfile>
